<svg viewBox="0 0 800 800" xmlns="http://www.w3.org/2000/svg"><path d="M432.7750666904067,271.3044105693311 L432.8188951625452,-13.445775436889448 M432.8188951625452,-13.445775436889448 L439.71811224024225,-8.399844480687307 M439.71811224024225,-8.399844480687307 L444.31080408355945,-2.55386627954897 M444.31080408355945,-2.55386627954897 L446.3297352464193,3.75262179094193 M446.3297352464193,3.75262179094193 L445.6571281240155,10.153202465663526 M445.6571281240155,10.153202465663526 L442.33159985545234,16.27586983051583 M442.33159985545234,16.27586983051583 L436.54601869200184,21.764635428555266 M436.54601869200184,21.764635428555266 L428.6364016479171,26.300271970121003 M428.6364016479171,26.300271970121003 L419.0624269798262,29.618909930143673 M419.0624269798262,29.618909930143673 L408.38071672725096,31.5274371932461 M408.38071672725096,31.5274371932461 L397.21245682561016,31.914783841124745 M397.21245682561016,31.914783841124745 L386.2071720439893,30.75840372161349 M386.2071720439893,30.75840372161349 L376.0049056291046,28.12559709974039 M376.0049056291046,28.12559709974039 L367.1988868633882,24.169583068233237 M367.1988868633882,24.169583068233237 L360.3010107997549,19.120533337376514 M360.3010107997549,19.120533337376514 L355.71203478353897,13.27215083623571 M355.71203478353897,13.27215083623571 L353.69834301419274,6.964523734955947 M353.69834301419274,6.964523734955947 L354.37651281002337,0.5643302374804762 M354.37651281002337,0.5643302374804762 L357.7066526956734,-5.556512439209882 M357.7066526956734,-5.556512439209882 L363.4948379491637,-11.042433853453872 M363.4948379491637,-11.042433853453872 L371.4044549934215,-15.57485828285462 M371.4044549934215,-15.57485828285462 L380.97582557166953,-18.890652058338333 M380.97582557166953,-18.890652058338333 L391.652924207035,-20.79735463445786 M391.652924207035,-20.79735463445786 L402.8156214349127,-21.18431410415974 M402.8156214349127,-21.18431410415974 L413.81566682276065,-20.029073014858 M413.81566682276065,-20.029073014858 L424.01421741058596,-17.398670694960288 M424.01421741058596,-17.398670694960288 L432.8188951625452,-13.445775436889448 M432.7750666904067,271.3044105693311 L423.9821537598174,267.34613132679436 M423.9821537598174,267.34613132679436 L413.7972290461017,264.7121460852159 M413.7972290461017,264.7121460852159 L402.81187955638586,263.5553313642547 M402.81187955638586,263.5553313642547 L391.6640953632391,263.94281794127437 M391.6640953632391,263.94281794127437 L381.00126148986703,265.85211772841495 M381.00126148986703,265.85211772841495 L371.44267942455565,269.17242788580796 M371.44267942455565,269.17242788580796 L363.5436320238033,273.7110253958957 M363.5436320238033,273.7110253958957 L357.7631832754789,279.2044178389598 M357.7631832754789,279.2044178389598 L354.43749654158273,285.3335953132917 M354.43749654158273,285.3335953132917 L353.7602366975323,291.7425029853004 M353.7602366975323,291.7425029853004 L355.77124106140434,298.0587172099942 M355.77124106140434,298.0587172099942 L360.35408729623987,303.915060722358 M360.35408729623987,303.915060722358 L367.2427466039024,308.97098268787465 M367.2427466039024,308.97098268787465 L376.0369969666424,312.9323807767819 M376.0369969666424,312.9323807767819 L386.22562758311176,315.56877037656193 M386.22562758311176,315.56877037656193 L397.2162024731216,316.7267241543695 M397.2162024731216,316.7267241543695 L408.36953448312977,316.3388503901186 M408.36953448312977,316.3388503901186 L419.0369676569111,314.4277258733241 M419.0369676569111,314.4277258733241 L428.59814685701,311.10457146487863 M428.59814685701,311.10457146487863 L436.4971942575901,306.56276176750845 M436.4971942575901,306.56276176750845 L442.27504587093125,301.0665250741362 M442.27504587093125,301.0665250741362 L445.59613330454033,294.93552286897017 M445.59613330454033,294.93552286897017 L446.26784533206387,288.5262280106613 M446.26784533206387,288.5262280106613 L444.2516155681556,282.211152843393 M444.2516155681556,282.211152843393 L439.665063430525,276.3572136872582 M439.665063430525,276.3572136872582 L432.7750666904067,271.3044105693311 M374.5159088678917,344.83196670652353 L469.6692060267592,330.170231518981 M304.88782506486314,304.7849751242926 L374.5159088678917,344.83196670652353 M330.4130084700748,250.12875578152682 L304.88782506486314,304.7849751242926 M425.4872180299936,235.49326570396696 L330.4130084700748,250.12875578152682 M495.1153018395679,275.4877670704077 L425.4872180299936,235.49326570396696 M469.6692060267592,330.170231518981 L495.1153018395679,275.4877670704077 M469.6692060267592,330.170231518981 L473.6860070628627,805.6072251503753 M373.0452393291955,821.1843141041597 L473.6860070628627,805.6072251503753 M374.5159088678917,344.83196670652353 L373.0452393291955,821.1843141041597 M299.4034841391876,778.6377170226109 L373.0452393291955,821.1843141041597 M304.88782506486314,304.7849751242926 L299.4034841391876,778.6377170226109 M495.1153018395679,275.4877670704077 L500.5965158608124,747.5130490135801 M473.6860070628627,805.6072251503753 L500.5965158608124,747.5130490135801 M326.4024612480074,720.573030326966 L299.4034841391876,778.6377170226109 M330.4130084700748,250.12875578152682 L326.4024612480074,720.573030326966 M425.4872180299936,235.49326570396696 L426.9547606626139,705.0254308181327 M500.5965158608124,747.5130490135801 L426.9547606626139,705.0254308181327 M426.9547606626139,705.0254308181327 L326.4024612480074,720.573030326966" stroke="black"  stroke-width="4"  fill="red"/></svg>