<svg viewBox="0 0 800 800" xmlns="http://www.w3.org/2000/svg"><path d="M445.83186347621165,154.5584502384712 L445.8573726362182,-11.172584915555262 M445.8573726362182,-11.172584915555262 L455.49778879541327,-4.105923758348695 M455.49778879541327,-4.105923758348695 L461.9152481982178,4.08117643865171 M461.9152481982178,4.08117643865171 L464.73633794904185,12.91320442749668 M464.73633794904185,12.91320442749668 L463.79648592423615,21.877004793446304 M463.79648592423615,21.877004793446304 L459.1496536343183,30.451595677106866 M459.1496536343183,30.451595677106866 L451.06534065623316,38.13842739290135 M451.06534065623316,38.13842739290135 L440.0130709049679,44.49043323164551 M440.0130709049679,44.49043323164551 L426.6351622154798,49.13807326103722 M426.6351622154798,49.13807326103722 L411.7093934895538,51.810900885542765 M411.7093934895538,51.810900885542765 L396.1037597234301,52.35336669968672 M396.1037597234301,52.35336669968672 L380.7258541756864,50.73389563540036 M380.7258541756864,50.73389563540036 L366.47002143740326,47.04673927500505 M366.47002143740326,47.04673927500505 L354.1651922614917,41.50647543930563 M354.1651922614917,41.50647543930563 L344.52664784155735,34.43545140670926 M344.52664784155735,34.43545140670926 L338.1143748567487,26.244987817840524 M338.1143748567487,26.244987817840524 L335.30059806319326,17.4113664309632 M335.30059806319326,17.4113664309632 L336.2482142677582,8.448107689935341 M336.2482142677582,8.448107689935341 L340.9014832871577,-0.12393062486080453 M340.9014832871577,-0.12393062486080453 L348.9894309605814,-7.806783592313764 M348.9894309605814,-7.806783592313764 L360.0417007120878,-14.15429598518017 M360.0417007120878,-14.15429598518017 L373.4159747065114,-18.797957265190234 M373.4159747065114,-18.797957265190234 L388.33530670278475,-21.468232322481526 M388.33530670278475,-21.468232322481526 L403.93317628868084,-22.01015651040177 M403.93317628868084,-22.01015651040177 L419.3037688787948,-20.392278843337294 M419.3037688787948,-20.392278843337294 L433.5544151991403,-16.708485877569274 M433.5544151991403,-16.708485877569274 L445.8573726362182,-11.172584915555262 M445.83186347621165,154.5584502384712 L433.5357534296938,149.0194246704246 M433.5357534296938,149.0194246704246 L419.29303767566313,145.33355234841784 M419.29303767566313,145.33355234841784 L403.9309984306915,143.71476142072368 M403.9309984306915,143.71476142072368 L388.34180856848815,144.2569915165564 M388.34180856848815,144.2569915165564 L373.43077898610545,146.92877387094066 M373.43077898610545,146.92877387094066 L360.06394819439527,151.5750562425089 M360.06394819439527,151.5750562425089 L349.0178302123816,157.92615119434666 M349.0178302123816,157.92615119434666 L340.934385356953,165.6133399856453 M340.934385356953,165.6133399856453 L336.28370816911973,174.19021541166433 M336.28370816911973,174.19021541166433 L335.33662157376136,183.1585314332442 M335.33662157376136,183.1585314332442 L338.14883423412937,191.99713636384982 M338.14883423412937,191.99713636384982 L344.5575395466517,200.19222012947208 M344.5575395466517,200.19222012947208 L354.1907196072152,207.26723246504716 M354.1907196072152,207.26723246504716 L366.4886993095009,212.81062093856517 M366.4886993095009,212.81062093856517 L380.7365957094836,216.49985667970302 M380.7365957094836,216.49985667970302 L396.10593977346446,218.12024101622808 M396.10593977346446,218.12024101622808 L411.7028851751073,217.5774692902254 M411.7028851751073,217.5774692902254 L426.6203443236799,214.90313435003034 M426.6203443236799,214.90313435003034 L439.9908057653878,210.25287320009275 M439.9908057653878,210.25287320009275 L451.0369237471608,203.8972847696402 M451.0369237471608,203.8972847696402 L459.1167379523184,196.20611720101226 M459.1167379523184,196.20611720101226 L463.7609855741324,187.6266891875322 M463.7609855741324,187.6266891875322 L464.7003166305185,178.65783153708452 M464.7003166305185,178.65783153708452 L461.8807991515016,169.82082001611994 M461.8807991515016,169.82082001611994 L455.46691319296906,161.62909966687013 M455.46691319296906,161.62909966687013 L445.83186347621165,154.5584502384712 M364.36159610971663,257.4493502328011 L497.4250336922499,236.9324321192855 M266.9928895366229,201.40953622888122 L364.36159610971663,257.4493502328011 M302.6875786907373,124.92625592286493 L266.9928895366229,201.40953622888122 M435.64045620827466,104.44605168374454 L302.6875786907373,124.92625592286493 M533.0091627905127,160.41243794470776 L435.64045620827466,104.44605168374454 M497.4250336922499,236.9324321192855 L533.0091627905127,160.41243794470776 M497.4250336922499,236.9324321192855 L500.1015420340079,800.8490824298964 M363.3816509640252,822.0101565104018 L500.1015420340079,800.8490824298964 M364.36159610971663,257.4493502328011 L363.3816509640252,822.0101565104018 M263.3384901496431,764.2112787875046 L363.3816509640252,822.0101565104018 M266.9928895366229,201.40953622888122 L263.3384901496431,764.2112787875046 M533.0091627905127,160.41243794470776 L536.6615098503569,721.9280625229094 M500.1015420340079,800.8490824298964 L536.6615098503569,721.9280625229094 M300.01517500508766,685.329164564575 L263.3384901496431,764.2112787875046 M302.6875786907373,124.92625592286493 L300.01517500508766,685.329164564575 M435.64045620827466,104.44605168374454 L436.6183490257837,664.206996174574 M536.6615098503569,721.9280625229094 L436.6183490257837,664.206996174574 M436.6183490257837,664.206996174574 L300.01517500508766,685.329164564575" stroke="black"  stroke-width="4"  fill="red"/></svg>