<svg viewBox="0 0 800 800" xmlns="http://www.w3.org/2000/svg"><path d="M445.6264251910745,154.4966530762719 L445.65181935791054,-10.487280363398327 M445.65181935791054,-10.487280363398327 L455.2487773233343,-3.452475126601996 M455.2487773233343,-3.452475126601996 L461.6373073532113,4.6977183040401655 M461.6373073532113,4.6977183040401655 L464.44567986620945,13.489932245711884 M464.44567986620945,13.489932245711884 L463.5100646161172,22.41332454557829 M463.5100646161172,22.41332454557829 L458.8841798594534,30.949261887111618 M458.8841798594534,30.949261887111618 L450.8363102914978,38.601442005228705 M450.8363102914978,38.601442005228705 L439.83386325250257,44.92481353026511 M439.83386325250257,44.92481353026511 L426.5162610620787,49.5515023851803 M426.5162610620787,49.5515023851803 L411.6577764594483,52.21228112518696 M411.6577764594483,52.21228112518696 L396.12249159164315,52.75230154858451 M396.12249159164315,52.75230154858451 L380.8139083623611,51.140130925084065 M380.8139083623611,51.140130925084065 L366.62233973169333,47.469595958716354 M366.62233973169333,47.469595958716354 L354.3729797017003,41.95430717132825 M354.3729797017003,41.95430717132825 L344.7778850378924,34.91515872662109 M344.7778850378924,34.91515872662109 L338.39451804607063,26.761617066001406 M338.39451804607063,26.761617066001406 L335.5934255241383,17.967816909203293 M335.5934255241383,17.967816909203293 L336.5367699537136,9.044963792658336 M336.5367699537136,9.044963792658336 L341.1690624236182,0.5115675132211095 M341.1690624236182,0.5115675132211095 L349.2205503020082,-7.1366517924203094 M349.2205503020082,-7.1366517924203094 L360.22299734124346,-13.455550127659308 M360.22299734124346,-13.455550127659308 L373.53698122150576,-18.078278169063708 M373.53698122150576,-18.078278169063708 L388.3890581107251,-20.73651584861699 M388.3890581107251,-20.73651584861699 L403.9166137985809,-21.275997087396888 M403.9166137985809,-21.275997087396888 L419.21791703643777,-19.665412678215944 M419.21791703643777,-19.665412678215944 L433.4043226291082,-15.998225944572539 M433.4043226291082,-15.998225944572539 L445.65181935791054,-10.487280363398327 M445.6264251910745,154.4966530762719 L433.38574498536536,148.98259697452912 M433.38574498536536,148.98259697452912 L419.2072342086767,145.3133402582121 M419.2072342086767,145.3133402582121 L403.9144457581941,143.7018467053041 M403.9144457581941,143.7018467053041 L388.395530666559,144.24163247298935 M388.395530666559,144.24163247298935 L373.5517187646395,146.90137065486556 M373.5517187646395,146.90137065486556 L360.24514453375207,151.52670797216595 M360.24514453375207,151.52670797216595 L349.24882153234466,157.84917271649815 M349.24882153234466,157.84917271649815 L341.20181617362095,165.50170830045244 M341.20181617362095,165.50170830045244 L336.57210385152155,174.03991988581754 M336.57210385152155,174.03991988581754 L335.6292866437186,182.96780748511446 M335.6292866437186,182.96780748511446 L338.4288220834457,191.76656872024057 M338.4288220834457,191.76656872024057 L344.808637485751,199.92470973024166 M344.808637485751,199.92470973024166 L354.3983919722736,206.96782849898955 M354.3983919722736,206.96782849898955 L366.6409334054979,212.486227838589 M366.6409334054979,212.486227838589 L380.82460147421784,216.1588328120238 M380.82460147421784,216.1588328120238 L396.1246618141934,217.77191259080794 M396.1246618141934,217.77191259080794 L411.65129748394173,217.2315876345766 M411.65129748394173,217.2315876345766 L426.5015099681018,214.56930837373397 M426.5015099681018,214.56930837373397 L439.81169848231883,209.94001021406626 M439.81169848231883,209.94001021406626 L450.8080214834867,203.61307224734708 M450.8080214834867,203.61307224734708 L458.8514125586086,195.95657582206036 M458.8514125586086,195.95657582206036 L463.47472429863734,187.415823156086 M463.47472429863734,187.415823156086 L464.40982092879227,178.48739636953906 M464.40982092879227,178.48739636953906 L461.6030135999308,169.6902213610959 M461.6030135999308,169.6902213610959 L455.21804090553655,161.53542860546656 M455.21804090553655,161.53542860546656 L445.6264251910745,154.4966530762719 M364.52341900992104,256.9237294559968 L496.9870176893568,236.49929990192123 M267.5936424630459,201.13653826997944 L364.52341900992104,256.9237294559968 M303.12742292896155,124.99803822665262 L267.5936424630459,201.13653826997944 M435.48095993897357,104.61015704388194 L303.12742292896155,124.99803822665262 M532.4107364949518,160.324251493097 L435.48095993897357,104.61015704388194 M496.9870176893568,236.49929990192123 L532.4107364949518,160.324251493097 M496.9870176893568,236.49929990192123 L502.6131109816305,799.5837705535073 M362.46354011506,821.275997087397 L502.6131109816305,799.5837705535073 M364.52341900992104,256.9237294559968 L362.46354011506,821.275997087397 M259.9120530769895,762.0267737647774 L362.46354011506,821.275997087397 M267.5936424630459,201.13653826997944 L259.9120530769895,762.0267737647774 M532.4107364949518,160.324251493097 L540.0879469230106,718.6834153717462 M502.6131109816305,799.5837705535073 L540.0879469230106,718.6834153717462 M297.51008755990443,681.1674847693677 L259.9120530769895,762.0267737647774 M303.12742292896155,124.99803822665262 L297.51008755990443,681.1674847693677 M435.48095993897357,104.61015704388194 L437.53645987353406,659.5163244271224 M540.0879469230106,718.6834153717462 L437.53645987353406,659.5163244271224 M437.53645987353406,659.5163244271224 L297.51008755990443,681.1674847693677" stroke="black"  stroke-width="4"  fill="red"/></svg>