<svg viewBox="0 0 800 800" xmlns="http://www.w3.org/2000/svg"><path d="M445.7911078232179,419.34476845907056 L445.8573726362182,-11.172584915555262 M445.8573726362182,-11.172584915555262 L455.49778879541327,-4.105923758348695 M455.49778879541327,-4.105923758348695 L461.9152481982178,4.08117643865171 M461.9152481982178,4.08117643865171 L464.73633794904185,12.91320442749668 M464.73633794904185,12.91320442749668 L463.79648592423615,21.877004793446304 M463.79648592423615,21.877004793446304 L459.1496536343183,30.451595677106866 M459.1496536343183,30.451595677106866 L451.06534065623316,38.13842739290135 M451.06534065623316,38.13842739290135 L440.0130709049679,44.49043323164551 M440.0130709049679,44.49043323164551 L426.6351622154798,49.13807326103722 M426.6351622154798,49.13807326103722 L411.7093934895538,51.810900885542765 M411.7093934895538,51.810900885542765 L396.1037597234301,52.35336669968672 M396.1037597234301,52.35336669968672 L380.7258541756864,50.73389563540036 M380.7258541756864,50.73389563540036 L366.47002143740326,47.04673927500505 M366.47002143740326,47.04673927500505 L354.1651922614917,41.50647543930563 M354.1651922614917,41.50647543930563 L344.52664784155735,34.43545140670926 M344.52664784155735,34.43545140670926 L338.1143748567487,26.244987817840524 M338.1143748567487,26.244987817840524 L335.30059806319326,17.4113664309632 M335.30059806319326,17.4113664309632 L336.2482142677582,8.448107689935341 M336.2482142677582,8.448107689935341 L340.9014832871577,-0.12393062486080453 M340.9014832871577,-0.12393062486080453 L348.9894309605814,-7.806783592313764 M348.9894309605814,-7.806783592313764 L360.0417007120878,-14.15429598518017 M360.0417007120878,-14.15429598518017 L373.4159747065114,-18.797957265190234 M373.4159747065114,-18.797957265190234 L388.33530670278475,-21.468232322481526 M388.33530670278475,-21.468232322481526 L403.93317628868084,-22.01015651040177 M403.93317628868084,-22.01015651040177 L419.3037688787948,-20.392278843337294 M419.3037688787948,-20.392278843337294 L433.5544151991403,-16.708485877569274 M433.5544151991403,-16.708485877569274 L445.8573726362182,-11.172584915555262 M445.7911078232179,419.34476845907056 L433.50593776187856,413.80076508844024 M433.50593776187856,413.80076508844024 L419.2758925705175,410.11158014797314 M419.2758925705175,410.11158014797314 L403.9275188949532,408.49133430628626 M403.9275188949532,408.49133430628626 L388.35219651576057,409.0340517435217 M388.35219651576057,409.0340517435217 L373.45443159273043,411.7082353702529 M373.45443159273043,411.7082353702529 L360.0994927084099,416.35869339728407 M360.0994927084099,416.35869339728407 L349.0632033259316,422.7154957144832 M349.0632033259316,422.7154957144832 L340.986952560031,430.40959189264026 M340.986952560031,430.40959189264026 L336.34041630256064,438.9941733011706 M336.34041630256064,438.9941733011706 L335.3941758517307,447.9705460520374 M335.3941758517307,447.9705460520374 L338.2038895128,456.81709023804945 M338.2038895128,456.81709023804945 L344.60689479986837,465.0195343775614 M344.60689479986837,465.0195343775614 L354.2315042942733,472.10090045016034 M354.2315042942733,472.10090045016034 L366.51854068570117,477.64926676007326 M366.51854068570117,477.64926676007326 L380.7537573078592,481.3418151457373 M380.7537573078592,481.3418151457373 L396.10942280887093,482.96365440860313 M396.10942280887093,482.96365440860313 L411.69248693221533,482.4203953370005 M411.69248693221533,482.4203953370005 L426.5966699847434,479.7436591046767 M426.5966699847434,479.7436591046767 L439.95523306098625,475.089222268442 M439.95523306098625,475.089222268442 L450.99152244322477,468.72792643780457 M450.99152244322477,468.72792643780457 L459.06414901693074,461.0298514514835 M459.06414901693074,461.0298514514835 L463.704267145073,452.44271743570965 M463.704267145073,452.44271743570965 L464.6427658522169,443.4658030517778 M464.6427658522169,443.4658030517778 L461.8257603660591,434.62085228775527 M461.8257603660591,434.62085228775527 L455.41758364813603,426.4217715906817 M455.41758364813603,426.4217715906817 L445.7911078232179,419.34476845907056 M364.39334010798024,522.3280671321942 L497.3383314973537,501.7927344699783 M267.1112701204759,466.2379437344314 L364.39334010798024,522.3280671321942 M302.7741497786545,389.6859400336615 L267.1112701204759,466.2379437344314 M435.6087777635118,369.1873215303427 L302.7741497786545,389.6859400336615 M532.8908477601279,425.2040166161299 L435.6087777635118,369.1873215303427 M497.3383314973537,501.7927344699783 L532.8908477601279,425.2040166161299 M497.3383314973537,501.7927344699783 L500.1015420340079,800.8490824298964 M363.3816509640252,822.0101565104018 L500.1015420340079,800.8490824298964 M364.39334010798024,522.3280671321942 L363.3816509640252,822.0101565104018 M263.3384901496431,764.2112787875046 L363.3816509640252,822.0101565104018 M267.1112701204759,466.2379437344314 L263.3384901496431,764.2112787875046 M532.8908477601279,425.2040166161299 L536.6615098503569,721.9280625229094 M500.1015420340079,800.8490824298964 L536.6615098503569,721.9280625229094 M300.01517500508766,685.329164564575 L263.3384901496431,764.2112787875046 M302.7741497786545,389.6859400336615 L300.01517500508766,685.329164564575 M435.6087777635118,369.1873215303427 L436.6183490257837,664.206996174574 M536.6615098503569,721.9280625229094 L436.6183490257837,664.206996174574 M436.6183490257837,664.206996174574 L300.01517500508766,685.329164564575" stroke="black"  stroke-width="4"  fill="red"/></svg>