<svg viewBox="0 0 800 800" xmlns="http://www.w3.org/2000/svg"><path d="M465.1165459756594,239.03858716507835 L465.15275635627575,3.782551242502336 M465.15275635627575,3.782551242502336 L478.849557063557,13.84065417686952 M478.849557063557,13.84065417686952 L487.96727947484527,25.493496603765152 M487.96727947484527,25.493496603765152 L491.9753909726806,38.064274710382165 M491.9753909726806,38.064274710382165 L490.6400736878734,50.822605351516586 M490.6400736878734,50.822605351516586 L484.03799557262596,63.026966178710836 M484.03799557262596,63.026966178710836 L472.55205413377166,73.96776323377094 M472.55205413377166,73.96776323377094 L456.84933479846734,83.00867937020439 M456.84933479846734,83.00867937020439 L437.8424226664083,89.62374270936311 M437.8424226664083,89.62374270936311 L416.63636115889494,93.42802254585865 M416.63636115889494,93.42802254585865 L394.4643694971869,94.20012311076107 M394.4643694971869,94.20012311076107 L372.61592668304945,91.89510314620611 M372.61592668304945,91.89510314620611 L352.36168849114756,86.6471123162114 M352.36168849114756,86.6471123162114 L334.879373068544,78.76156242907473 M334.879373068544,78.76156242907473 L321.1852293023747,68.69725526763 M321.1852293023747,68.69725526763 L312.07486903147014,57.03962992922834 M312.07486903147014,57.03962992922834 L308.0771383047331,44.46658593089262 M308.0771383047331,44.46658593089262 L309.42347687270774,31.70902550749406 M309.42347687270774,31.70902550749406 L316.0346919503241,19.50829456092879 M316.0346919503241,19.50829456092879 L327.5257928532544,8.573155485066422 M327.5257928532544,8.573155485066422 L343.2285121889004,-0.4613707465242669 M343.2285121889004,-0.4613707465242669 L362.2302648572718,-7.070776105006985 M362.2302648572718,-7.070776105006985 L383.42718940217384,-10.871426063220838 M383.42718940217384,-10.871426063220838 L405.58815978005083,-11.64275640853566 M405.58815978005083,-11.64275640853566 L427.4262218225784,-9.340002334546739 M427.4262218225784,-9.340002334546739 L447.67309787417884,-4.096794419981052 M447.67309787417884,-4.096794419981052 L465.15275635627575,3.782551242502336 M465.1165459756594,239.03858716507835 L447.64660739705226,231.1548217893513 M447.64660739705226,231.1548217893513 L427.41098882420033,225.90867265236056 M427.41098882420033,225.90867265236056 L405.5850682993046,223.60462678281328 M405.5850682993046,223.60462678281328 L383.43641883430575,224.37638983100072 M383.43641883430575,224.37638983100072 L362.25127960836244,228.17917184164054 M362.25127960836244,228.17917184164054 L343.2600926027919,234.7922846995807 M343.2600926027919,234.7922846995807 L327.5661057320386,243.83187841162018 M327.5661057320386,243.83187841162018 L316.0813965972647,254.77315044767417 M316.0813965972647,254.77315044767417 L309.4738606318709,266.9807234142082 M309.4738606318709,266.9807234142082 L308.12827384112603,279.745437279246 M308.12827384112603,279.745437279246 L312.1237842685172,292.3255304151908 M312.1237842685172,292.3255304151908 L321.2290802086685,303.9896909108336 M321.2290802086685,303.9896909108336 L334.91560924089276,314.059639452307 M334.91560924089276,314.059639452307 L352.3882018057169,321.9496090792496 M352.3882018057169,321.9496090792496 L372.6311743328027,327.20054115214714 M372.6311743328027,327.20054115214714 L394.4674640867816,329.50685292196147 M394.4674640867816,329.50685292196147 L416.6271225808901,328.734319650889 M416.6271225808901,328.734319650889 L437.82138860992694,324.92790774642646 M437.82138860992694,324.92790774642646 L456.81772934230503,318.30913688358623 M456.81772934230503,318.30913688358623 L472.5117162127173,309.26315323934614 M472.5117162127173,309.26315323934614 L483.99127162029623,298.3162231998705 M483.99127162029623,298.3162231998705 L490.58968078283834,286.10502033716614 M490.58968078283834,286.10502033716614 L491.9242585451358,273.3395362510947 M491.9242585451358,273.3395362510947 L487.9183788891718,260.76170901657036 M487.9183788891718,260.76170901657036 L478.80572899470457,249.10233145291122 M478.80572899470457,249.10233145291122 L465.1165459756594,239.03858716507835 M349.3660927608578,385.4844152210957 L538.4184886421906,356.28245883718336 M211.02760994003566,305.7223113403303 L349.3660927608578,385.4844152210957 M261.7414636395682,196.8627028819707 L211.02760994003566,305.7223113403303 M450.6369189259727,167.71295530735378 L261.7414636395682,196.8627028819707 M588.9754017597522,247.37064157780216 L450.6369189259727,167.71295530735378 M538.4184886421906,356.28245883718336 L588.9754017597522,247.37064157780216 M538.4184886421906,356.28245883718336 L542.3478700112789,781.550973991363 M347.9274356549901,811.6427564085357 L542.3478700112789,781.550973991363 M349.3660927608578,385.4844152210957 L347.9274356549901,811.6427564085357 M205.6625857660143,729.4507445202313 L347.9274356549901,811.6427564085357 M211.02760994003566,305.7223113403303 L205.6625857660143,729.4507445202313 M588.9754017597522,247.37064157780216 L594.3374142339858,669.3225421949707 M542.3478700112789,781.550973991363 L594.3374142339858,669.3225421949707 M257.8181056727282,617.2776379580398 L205.6625857660143,729.4507445202313 M261.7414636395682,196.8627028819707 L257.8181056727282,617.2776379580398 M450.6369189259727,167.71295530735378 L452.0725643305177,587.241180784236 M594.3374142339858,669.3225421949707 L452.0725643305177,587.241180784236 M452.0725643305177,587.241180784236 L257.8181056727282,617.2776379580398" stroke="black"  stroke-width="4"  fill="red"/></svg>